<svg width="512" height="512" viewBox="0 0 512 512" fill="none" xmlns="http://www.w3.org/2000/svg">
  <rect width="512" height="512" rx="64" fill="#000000"/>
  <rect x="64" y="64" width="384" height="384" rx="32" fill="#1a1a2e"/>
  
  <!-- Main RPG Adventure Logo -->
  <text x="256" y="200" font-family="Arial Black, sans-serif" font-size="72" font-weight="bold" text-anchor="middle" fill="#4a90e2">RPG</text>
  <text x="256" y="280" font-family="Arial Black, sans-serif" font-size="64" font-weight="bold" text-anchor="middle" fill="#63b3ed">ADVENTURE</text>
  
  <!-- Decorative sword -->
  <g transform="translate(256, 340)">
    <rect x="-8" y="-40" width="16" height="80" fill="#e74c3c"/>
    <rect x="-20" y="-32" width="40" height="12" fill="#c0392b"/>
    <rect x="-6" y="40" width="12" height="20" fill="#34495e"/>
    <rect x="-12" y="56" width="24" height="16" rx="4" fill="#2c3e50"/>
  </g>
  
  <!-- Decorative elements -->
  <g opacity="0.6">
    <!-- Corner stars -->
    <path d="M80 80L88 88L80 96L72 88Z" fill="#f39c12"/>
    <path d="M432 80L440 88L432 96L424 88Z" fill="#f39c12"/>
    <path d="M80 432L88 440L80 448L72 440Z" fill="#f39c12"/>
    <path d="M432 432L440 440L432 448L424 440Z" fill="#f39c12"/>
    
    <!-- Side decorations -->
    <circle cx="100" cy="256" r="4" fill="#f39c12"/>
    <circle cx="120" cy="240" r="3" fill="#f39c12"/>
    <circle cx="120" cy="272" r="3" fill="#f39c12"/>
    
    <circle cx="412" cy="256" r="4" fill="#f39c12"/>
    <circle cx="392" cy="240" r="3" fill="#f39c12"/>
    <circle cx="392" cy="272" r="3" fill="#f39c12"/>
  </g>
  
  <!-- Bottom decorative line -->
  <rect x="180" y="420" width="152" height="2" fill="#4a90e2" opacity="0.5"/>
</svg>